<svg width="13" height="13" viewBox="0 0 13 13" fill="none" xmlns="http://www.w3.org/2000/svg">
<path fill-rule="evenodd" clip-rule="evenodd" d="M0.611644 1.17352C1.08048 0.617264 1.75755 0.259774 2.44131 0.0403971C2.87283 -0.0982511 3.30659 0.133942 3.5076 0.523712L4.42744 2.3061C4.92411 3.26884 4.07553 3.46706 3.48254 4.35077C3.35114 4.54677 3.18633 4.84857 3.32385 5.08187C4.51262 7.10088 5.89902 8.48742 7.91798 9.67611C8.33725 9.92279 9.04941 9.20839 9.31723 8.93944C9.78327 8.47059 10.0695 8.2501 10.6942 8.57249L12.4766 9.49236C12.8663 9.69337 13.0985 10.1271 12.9599 10.5587C12.5189 11.9318 11.6046 13.0187 10.0661 12.9998C6.14678 12.9519 0.0481182 6.85306 0.00022403 2.9342C-0.00757131 2.27937 0.187909 1.67639 0.611644 1.17352Z" fill="black"/>
</svg>
